<?xml version="1.0" encoding="UTF-8"?>
<svg version="1.1" xmlns="http://www.w3.org/2000/svg" width="360" height="360">
<path d="M0 0 C4.70674166 3.6360796 8.50522929 7.4157163 12.20703125 12.04296875 C12.86703125 12.04296875 13.52703125 12.04296875 14.20703125 12.04296875 C15.54632719 10.38108971 16.8786304 8.71356946 18.20703125 7.04296875 C33.5578099 -6.25762243 52.20044341 -11.81510161 72.20703125 -10.95703125 C93.59339964 -9.17058043 110.40589822 1.10745342 124.20703125 17.04296875 C132.29272146 27.24766743 138.1285 41.48836876 138.2265625 54.66796875 C138.27017109 57.33205725 138.3980262 59.50038144 139.20703125 62.04296875 C141.1852452 63.90375448 143.23062751 65.09157812 145.59375 66.42578125 C157.18362033 73.597988 162.92573689 83.88284299 166.41015625 96.578125 C169.65371244 110.68123449 167.43784848 123.46408697 159.89453125 135.85546875 C151.75839945 147.85281564 139.57576937 156.16011776 125.20703125 159.04296875 C122.86285511 159.14163477 120.51605342 159.18224442 118.16981506 159.19013977 C117.46094806 159.19381646 116.75208105 159.19749315 116.02173322 159.20128125 C113.64607325 159.21229521 111.27045705 159.21615811 108.89477539 159.2199707 C107.1911607 159.22623733 105.48754738 159.2328843 103.78393555 159.23988342 C98.18669585 159.26091117 92.58945594 159.27128797 86.9921875 159.28125 C85.06208215 159.28529872 83.13197694 159.28941568 81.20187187 159.29360008 C72.12868738 159.31265279 63.055511 159.3268809 53.98231035 159.33521205 C43.52862099 159.34497035 33.07514417 159.3712527 22.62152964 159.41171294 C14.5304405 159.4419476 6.439412 159.45668808 -1.6517325 159.45999306 C-6.47840183 159.46233612 -11.30484413 159.47119851 -16.13145256 159.49645424 C-20.67957481 159.51986739 -25.22732273 159.5239154 -29.77548981 159.51369286 C-31.43581709 159.51320051 -33.09616363 159.51943111 -34.75643349 159.5332489 C-50.35771408 159.65572127 -63.53046186 157.15871056 -75.01171875 145.859375 C-83.55493562 136.15262299 -86.89065608 124.60654368 -86.20703125 111.875 C-85.11624256 101.78005935 -81.54255448 94.5509349 -74.79296875 87.04296875 C-76.52987211 83.95514056 -78.44567462 81.22397104 -80.66796875 78.48046875 C-89.20264672 67.18582029 -91.89506606 52.93289361 -90.79296875 39.04296875 C-88.30413083 21.76750553 -79.73165211 8.57177306 -65.98046875 -1.89453125 C-45.67866756 -15.18002995 -19.57607361 -13.71694109 0 0 Z " fill="#FEFEFE" transform="translate(157.79296875,104.95703125)"/>
<path d="M0 0 C4.70674166 3.6360796 8.50522929 7.4157163 12.20703125 12.04296875 C12.86703125 12.04296875 13.52703125 12.04296875 14.20703125 12.04296875 C15.54632719 10.38108971 16.8786304 8.71356946 18.20703125 7.04296875 C33.5578099 -6.25762243 52.20044341 -11.81510161 72.20703125 -10.95703125 C93.59339964 -9.17058043 110.40589822 1.10745342 124.20703125 17.04296875 C132.29272146 27.24766743 138.1285 41.48836876 138.2265625 54.66796875 C138.27017109 57.33205725 138.3980262 59.50038144 139.20703125 62.04296875 C141.1852452 63.90375448 143.23062751 65.09157812 145.59375 66.42578125 C157.18362033 73.597988 162.92573689 83.88284299 166.41015625 96.578125 C169.65371244 110.68123449 167.43784848 123.46408697 159.89453125 135.85546875 C151.75839945 147.85281564 139.57576937 156.16011776 125.20703125 159.04296875 C122.86285511 159.14163477 120.51605342 159.18224442 118.16981506 159.19013977 C117.46094806 159.19381646 116.75208105 159.19749315 116.02173322 159.20128125 C113.64607325 159.21229521 111.27045705 159.21615811 108.89477539 159.2199707 C107.1911607 159.22623733 105.48754738 159.2328843 103.78393555 159.23988342 C98.18669585 159.26091117 92.58945594 159.27128797 86.9921875 159.28125 C85.06208215 159.28529872 83.13197694 159.28941568 81.20187187 159.29360008 C72.12868738 159.31265279 63.055511 159.3268809 53.98231035 159.33521205 C43.52862099 159.34497035 33.07514417 159.3712527 22.62152964 159.41171294 C14.5304405 159.4419476 6.439412 159.45668808 -1.6517325 159.45999306 C-6.47840183 159.46233612 -11.30484413 159.47119851 -16.13145256 159.49645424 C-20.67957481 159.51986739 -25.22732273 159.5239154 -29.77548981 159.51369286 C-31.43581709 159.51320051 -33.09616363 159.51943111 -34.75643349 159.5332489 C-50.35771408 159.65572127 -63.53046186 157.15871056 -75.01171875 145.859375 C-83.55493562 136.15262299 -86.89065608 124.60654368 -86.20703125 111.875 C-85.11624256 101.78005935 -81.54255448 94.5509349 -74.79296875 87.04296875 C-76.52987211 83.95514056 -78.44567462 81.22397104 -80.66796875 78.48046875 C-89.20264672 67.18582029 -91.89506606 52.93289361 -90.79296875 39.04296875 C-88.30413083 21.76750553 -79.73165211 8.57177306 -65.98046875 -1.89453125 C-45.67866756 -15.18002995 -19.57607361 -13.71694109 0 0 Z M32.20703125 17.04296875 C21.92589831 25.76470586 14.39679566 36.47965451 13.20703125 50.04296875 C12.34722656 49.80320313 11.48742187 49.5634375 10.6015625 49.31640625 C-1.95749048 46.16637115 -11.65379155 47.120463 -23.0703125 53.34765625 C-32.41234324 59.16464526 -39.07622816 67.05958536 -42.26953125 77.69140625 C-43.1775097 81.77053333 -43.54077637 85.87744636 -43.79296875 90.04296875 C-44.34984375 90.05714844 -44.90671875 90.07132812 -45.48046875 90.0859375 C-53.26483111 90.57246015 -58.01676005 93.3298557 -63.54296875 98.73046875 C-67.97625467 104.56136685 -70.70731633 111.72818814 -69.79296875 119.04296875 C-68.39647663 127.15075795 -64.98079082 132.62862444 -58.79296875 138.04296875 C-52.48831959 142.2383419 -46.48354655 143.16346666 -38.97717285 143.19013977 C-37.96771866 143.1956548 -37.96771866 143.1956548 -36.93787146 143.20128125 C-34.68969292 143.21226723 -32.44156068 143.21615329 -30.19335938 143.2199707 C-28.57826594 143.22623938 -26.96317394 143.23288653 -25.3480835 143.23988342 C-20.04847205 143.26088449 -14.74886046 143.27128458 -9.44921875 143.28125 C-7.62033575 143.28529954 -5.79145289 143.28941652 -3.96257019 143.29360008 C4.63433984 143.3126459 13.23124133 143.32687619 21.82816839 143.33521205 C31.72831807 143.34497166 41.62824342 143.37126035 51.52831411 143.41171294 C59.19479857 143.44195574 66.86121903 143.45668879 74.52776194 143.45999306 C79.09955723 143.46233492 83.67111271 143.47118167 88.24284363 143.49645424 C92.55049791 143.51988227 96.85775699 143.52390961 101.16545868 143.51369286 C102.73709688 143.51320089 104.30875551 143.51942007 105.88033295 143.5332489 C118.70016528 143.63964337 130.20201763 142.29241402 140.40234375 133.82421875 C142.2577324 131.99292605 143.80260411 130.24120253 145.20703125 128.04296875 C145.20703125 127.05296875 145.20703125 126.06296875 145.20703125 125.04296875 C145.86703125 125.04296875 146.52703125 125.04296875 147.20703125 125.04296875 C151.74465967 111.75419981 152.24338204 103.57686558 146.33203125 90.79296875 C143.95263895 86.2256295 141.2035392 82.7084714 136.20703125 81.04296875 C136.20703125 80.38296875 136.20703125 79.72296875 136.20703125 79.04296875 C130.81243686 75.95829377 126.41691254 74.4865317 120.20703125 74.04296875 C120.35140625 73.42550781 120.49578125 72.80804688 120.64453125 72.171875 C123.68416998 58.30352328 121.88651381 45.68396585 115.1328125 33.03125 C109.53014886 24.33746159 102.25530456 17.10932403 93.20703125 12.04296875 C92.32917969 11.48029297 92.32917969 11.48029297 91.43359375 10.90625 C73.11289593 0.14584015 48.32496368 4.70858854 32.20703125 17.04296875 Z " fill="#D0D1D3" transform="translate(157.79296875,104.95703125)"/>
<path d="M0 0 C4.27113437 3.56846388 7.58386463 7.47676058 10.625 12.125 C9.25 14.125 9.25 14.125 7.625 16.125 C6.965 16.125 6.305 16.125 5.625 16.125 C5.25375 17.115 5.25375 17.115 4.875 18.125 C4.4625 19.115 4.05 20.105 3.625 21.125 C3.47289062 21.79917969 3.32078125 22.47335938 3.1640625 23.16796875 C2.33285055 25.85229439 1.70438919 27.19382723 -0.375 29.125 C-4.456863 30.11812208 -8.34777534 30.5158332 -12.52734375 30.7734375 C-16.01004433 31.0916538 -18.24033912 31.70213654 -21.375 33.125 C-22.70178335 33.46423438 -24.03522654 33.7788786 -25.375 34.0625 C-28.81805476 34.87454122 -31.39134401 36.19439907 -34.375 38.125 C-35.035 38.125 -35.695 38.125 -36.375 38.125 C-36.705 39.115 -37.035 40.105 -37.375 41.125 C-38.365 41.455 -39.355 41.785 -40.375 42.125 C-47.57827544 48.7550705 -56.53800163 59.47803718 -58.9375 69.125 C-60.16336043 73.81978461 -62.94948759 75.39327587 -67.01171875 77.7734375 C-67.79160156 78.21945313 -68.57148437 78.66546875 -69.375 79.125 C-70.74140411 80.06580283 -72.09701543 81.02262021 -73.4375 82 C-74.406875 82.70125 -75.37625 83.4025 -76.375 84.125 C-88.07189757 73.09649657 -93.18577144 59.17988164 -93.6875 43.25 C-93.33759415 27.31899236 -87.3296462 14.01854177 -76.22265625 2.8203125 C-54.69641192 -17.55432206 -23.25358477 -17.66578305 0 0 Z " fill="#FAB106" transform="translate(160.375,106.875)"/>
<path d="M0 0 C0.928125 0.78375 1.85625 1.5675 2.8125 2.375 C2.8125 3.035 2.8125 3.695 2.8125 4.375 C3.40546875 4.61347656 3.9984375 4.85195312 4.609375 5.09765625 C7.27836398 6.64510199 8.38776129 8.23695487 10.0625 10.8125 C10.58328125 11.59496094 11.1040625 12.37742188 11.640625 13.18359375 C12.8125 15.375 12.8125 15.375 12.8125 18.375 C11.71550781 18.49617188 10.61851562 18.61734375 9.48828125 18.7421875 C8.03381177 18.91109363 6.57938696 19.08038481 5.125 19.25 C4.40376953 19.32863281 3.68253906 19.40726563 2.93945312 19.48828125 C-1.09709628 19.96750629 -4.4408454 20.71492362 -8.1875 22.375 C-9.51428335 22.71423438 -10.84772654 23.0288786 -12.1875 23.3125 C-15.63055476 24.12454122 -18.20384401 25.44439907 -21.1875 27.375 C-21.8475 27.375 -22.5075 27.375 -23.1875 27.375 C-23.5175 28.365 -23.8475 29.355 -24.1875 30.375 C-25.1775 30.705 -26.1675 31.035 -27.1875 31.375 C-35.81323825 39.31433998 -44.42589055 50.93404657 -47.1875 62.375 C-48.5075 62.375 -49.8275 62.375 -51.1875 62.375 C-51.5175 61.385 -51.8475 60.395 -52.1875 59.375 C-53.1775 59.045 -54.1675 58.715 -55.1875 58.375 C-62.51143516 48.37157636 -64.32500981 37.54252063 -63.1875 25.375 C-61.54943187 18.04533921 -58.11658555 11.07865613 -53.1875 5.375 C-52.5275 5.375 -51.8675 5.375 -51.1875 5.375 C-51.1875 4.715 -51.1875 4.055 -51.1875 3.375 C-35.89521794 -8.48723749 -16.59544477 -11.14076671 0 0 Z " fill="#FDF004" transform="translate(147.1875,117.625)"/>
<path d="M0 0 C3.38891322 0.68886787 6.18011613 1.98716486 9.25 3.5625 C10.14203125 4.01753906 11.0340625 4.47257812 11.953125 4.94140625 C12.96632812 5.46541016 12.96632812 5.46541016 14 6 C13.42889181 9.48341708 12.56100609 12.19933345 10.85546875 15.28515625 C10.42556641 16.06310547 9.99566406 16.84105469 9.55273438 17.64257812 C9.10220703 18.44115234 8.65167969 19.23972656 8.1875 20.0625 C7.74857422 20.86494141 7.30964844 21.66738281 6.85742188 22.49414062 C4.61343151 26.51198369 2.53576123 29.95875083 -1 33 C-1.60328125 32.59007812 -2.2065625 32.18015625 -2.828125 31.7578125 C-3.62734375 31.21898438 -4.4265625 30.68015625 -5.25 30.125 C-6.03890625 29.59132813 -6.8278125 29.05765625 -7.640625 28.5078125 C-9.71555692 27.18177985 -11.77614972 26.05071825 -14 25 C-9.85499402 16.28606697 -5.16853067 8.13322085 0 0 Z " fill="#F7B00B" transform="translate(166,61)"/>
<path d="M0 0 C2.63125893 3.32099031 4.62307221 7.09076939 6.75 10.75 C7.67232422 12.27367188 7.67232422 12.27367188 8.61328125 13.828125 C9.47759766 15.29765625 9.47759766 15.29765625 10.359375 16.796875 C10.89014648 17.69760742 11.42091797 18.59833984 11.96777344 19.52636719 C13 22 13 22 12.79907227 24.21655273 C11.58438529 26.92760938 9.71147864 27.82324174 7.1875 29.3125 C6.31480469 29.84488281 5.44210938 30.37726563 4.54296875 30.92578125 C2 32 2 32 0.02734375 31.85375977 C-2.81535789 30.65663457 -3.49361459 29.08944252 -4.98046875 26.4140625 C-5.50447266 25.48335937 -6.02847656 24.55265625 -6.56835938 23.59375 C-7.10267578 22.6140625 -7.63699219 21.634375 -8.1875 20.625 C-8.73341797 19.65304688 -9.27933594 18.68109375 -9.84179688 17.6796875 C-13.81867452 10.54397643 -13.81867452 10.54397643 -15 7 C-13.06730041 5.82539808 -11.12866687 4.66055528 -9.1875 3.5 C-8.10855469 2.8503125 -7.02960938 2.200625 -5.91796875 1.53125 C-3 0 -3 0 0 0 Z " fill="#F5B010" transform="translate(82,61)"/>
<path d="M0 0 C2.89573237 1.44786618 3.59287023 3.55499304 5.125 6.375 C5.66382812 7.35210937 6.20265625 8.32921875 6.7578125 9.3359375 C8 12 8 12 8 15 C6.02807617 16.53393555 6.02807617 16.53393555 3.29296875 18.13671875 C2.31392578 18.71357422 1.33488281 19.29042969 0.32617188 19.88476562 C-0.70958984 20.47966797 -1.74535156 21.07457031 -2.8125 21.6875 C-3.83666016 22.29400391 -4.86082031 22.90050781 -5.91601562 23.52539062 C-13.59180786 28 -13.59180786 28 -17 28 C-18.859375 25.48046875 -18.859375 25.48046875 -20.75 22.1875 C-21.70132813 20.56908203 -21.70132813 20.56908203 -22.671875 18.91796875 C-24 16 -24 16 -23 13 C-21.20581055 11.68139648 -21.20581055 11.68139648 -18.88671875 10.37109375 C-18.05076172 9.89349609 -17.21480469 9.41589844 -16.35351562 8.92382812 C-15.47373047 8.43333984 -14.59394531 7.94285156 -13.6875 7.4375 C-12.81931641 6.94314453 -11.95113281 6.44878906 -11.05664062 5.93945312 C-8.71264213 4.61004799 -6.36623785 3.28939977 -4 2 C-2.9322937 1.3968396 -2.9322937 1.3968396 -1.84301758 0.78149414 C-1.23482178 0.52360107 -0.62662598 0.26570801 0 0 Z " fill="#F7AF0B" transform="translate(58,179)"/>
<path d="M0 0 C4.98801466 1.80094647 9.54832448 4.3351162 14.1875 6.875 C15.00669922 7.30941406 15.82589844 7.74382812 16.66992188 8.19140625 C17.45302734 8.62066406 18.23613281 9.04992187 19.04296875 9.4921875 C19.75477295 9.87745605 20.46657715 10.26272461 21.19995117 10.65966797 C23.33713774 12.2510357 24.14079427 13.48779685 25 16 C23.98828125 18.76171875 23.98828125 18.76171875 22.3125 21.6875 C21.77238281 22.66074219 21.23226562 23.63398437 20.67578125 24.63671875 C19 27 19 27 16 28 C13.65576172 26.9519043 13.65576172 26.9519043 10.9296875 25.32421875 C9.95128906 24.74349609 8.97289062 24.16277344 7.96484375 23.56445312 C6.94519531 22.94505859 5.92554688 22.32566406 4.875 21.6875 C3.33392578 20.77581055 3.33392578 20.77581055 1.76171875 19.84570312 C-5.86020008 15.27959983 -5.86020008 15.27959983 -7 13 C-5.92325298 10.71741367 -4.80453884 8.5643566 -3.5625 6.375 C-3.22412109 5.76398438 -2.88574219 5.15296875 -2.53710938 4.5234375 C-1.69853808 3.011647 -0.85017423 1.50529601 0 0 Z " fill="#F6B00E" transform="translate(41,94)"/>
<path d="M0 0 C5.28 0 10.56 0 16 0 C17.39850246 2.79700492 17.0101384 4.98115359 16.87890625 8.1015625 C16.83056641 9.31328125 16.78222656 10.525 16.73242188 11.7734375 C16.67634766 13.04445313 16.62027344 14.31546875 16.5625 15.625 C16.51029297 16.90375 16.45808594 18.1825 16.40429688 19.5 C16.27431355 22.66686657 16.13776769 25.83346252 16 29 C10.72 29 5.44 29 0 29 C0 19.43 0 9.86 0 0 Z " fill="#FDB002" transform="translate(116,51)"/>
<path d="M0 0 C9.24 0 18.48 0 28 0 C28 5.28 28 10.56 28 16 C24.2721875 16.7455625 21.44452297 17.1281059 17.734375 17.1328125 C16.76242188 17.13410156 15.79046875 17.13539063 14.7890625 17.13671875 C13.78617188 17.13285156 12.78328125 17.12898438 11.75 17.125 C10.73164062 17.12886719 9.71328125 17.13273437 8.6640625 17.13671875 C7.69726562 17.13542969 6.73046875 17.13414062 5.734375 17.1328125 C4.84975586 17.13168457 3.96513672 17.13055664 3.05371094 17.12939453 C1 17 1 17 0 16 C-0.07325436 13.3013095 -0.09222351 10.63497444 -0.0625 7.9375 C-0.041875 5.318125 -0.02125 2.69875 0 0 Z " fill="#FAB006" transform="translate(25,142)"/>
<path d="M0 0 C5.28 0 10.56 0 16 0 C17.39850246 2.79700492 17.0101384 4.98115359 16.87890625 8.1015625 C16.83056641 9.31328125 16.78222656 10.525 16.73242188 11.7734375 C16.67634766 13.04445313 16.62027344 14.31546875 16.5625 15.625 C16.51029297 16.90375 16.45808594 18.1825 16.40429688 19.5 C16.27431355 22.66686657 16.13776769 25.83346252 16 29 C10.72 29 5.44 29 0 29 C0 19.43 0 9.86 0 0 Z M1 2 C1 10.58 1 19.16 1 28 C5.62 28 10.24 28 15 28 C15 19.42 15 10.84 15 2 C10.38 2 5.76 2 1 2 Z " fill="#EAB230" transform="translate(116,51)"/>
<path d="M0 0 C0.66 0 1.32 0 2 0 C2 4.95 2 9.9 2 15 C10.25 15 18.5 15 27 15 C27 10.38 27 5.76 27 1 C26.01 0.67 25.02 0.34 24 0 C25.32 0 26.64 0 28 0 C28 5.28 28 10.56 28 16 C24.2721875 16.7455625 21.44452297 17.1281059 17.734375 17.1328125 C16.76242188 17.13410156 15.79046875 17.13539063 14.7890625 17.13671875 C13.78617188 17.13285156 12.78328125 17.12898438 11.75 17.125 C10.73164062 17.12886719 9.71328125 17.13273437 8.6640625 17.13671875 C7.69726562 17.13542969 6.73046875 17.13414062 5.734375 17.1328125 C4.84975586 17.13168457 3.96513672 17.13055664 3.05371094 17.12939453 C1 17 1 17 0 16 C-0.07319621 13.30345146 -0.09242537 10.63308542 -0.0625 7.9375 C-0.05798828 7.17888672 -0.05347656 6.42027344 -0.04882812 5.63867188 C-0.0370068 3.75908129 -0.01907078 1.87953101 0 0 Z " fill="#E4AE39" transform="translate(25,142)"/>
<path d="M0 0 C1.46373047 0.01353516 1.46373047 0.01353516 2.95703125 0.02734375 C4.06111328 0.04474609 4.06111328 0.04474609 5.1875 0.0625 C5.1875 0.3925 5.1875 0.7225 5.1875 1.0625 C-0.93230533 2.46704548 -6.52989294 3.29518915 -12.8125 3.0625 C-12.8125 3.7225 -12.8125 4.3825 -12.8125 5.0625 C-22.22252278 7.17411731 -22.22252278 7.17411731 -26.8125 8.0625 C-24.20399114 4.824989 -21.35848632 4.07700861 -17.4375 2.9375 C-16.31601563 2.60492188 -15.19453125 2.27234375 -14.0390625 1.9296875 C-9.21878226 0.63416424 -5.0022099 -0.06026759 0 0 Z " fill="#E2D98E" transform="translate(154.8125,135.9375)"/>
<path d="M0 0 C3.38891322 0.68886787 6.18011613 1.98716486 9.25 3.5625 C10.14203125 4.01753906 11.0340625 4.47257812 11.953125 4.94140625 C12.96632812 5.46541016 12.96632812 5.46541016 14 6 C13.67 7.32 13.34 8.64 13 10 C12.649375 9.566875 12.29875 9.13375 11.9375 8.6875 C9.21514365 6.31641544 6.35241784 5.3283165 3 4 C3 3.34 3 2.68 3 2 C2.34 2 1.68 2 1 2 C1 2.66 1 3.32 1 4 C0.34 4 -0.32 4 -1 4 C-0.67 5.32 -0.34 6.64 0 8 C-1.65 8.66 -3.3 9.32 -5 10 C-3.66511872 6.40608886 -2.03977277 3.24509304 0 0 Z " fill="#E1AE32" transform="translate(166,61)"/>
<path d="M0 0 C0 3.25811062 -0.5522078 5.10441559 -2 8 C-2.99 8.33 -3.98 8.66 -5 9 C-5.61067144 10.85744207 -5.61067144 10.85744207 -6 13 C-6.63654342 14.3479743 -7.29605388 15.68596724 -8 17 C-8.66 17 -9.32 17 -10 17 C-8.58707905 12.1725201 -6.57025846 8.2837641 -4 4 C-3.34 4 -2.68 4 -2 4 C-1.34 2.68 -0.68 1.36 0 0 Z " fill="#E5D19E" transform="translate(170,119)"/>
<path d="M0 0 C0 0.33 0 0.66 0 1 C-2.05078125 1.22786458 -4.1015625 1.45572917 -6.15234375 1.68359375 C-8.01140229 1.81886614 -8.01140229 1.81886614 -9 3 C-11.69235776 3.23678716 -14.36498156 3.42198025 -17.0625 3.5625 C-18.20041992 3.62727539 -18.20041992 3.62727539 -19.36132812 3.69335938 C-21.24065438 3.79973633 -23.12030244 3.90039934 -25 4 C-17.7074301 -0.86171326 -8.45870296 -0.26160937 0 0 Z " fill="#E7AD2D" transform="translate(129,94)"/>
<path d="M0 0 C1.32 0.66 2.64 1.32 4 2 C3.42365861 6.75481646 1.44931479 9.97048212 -1 14 C-1.33 12.68 -1.66 11.36 -2 10 C-1.34 10 -0.68 10 0 10 C0.07095984 7.4454459 0.05950561 5.23802245 -0.5625 2.75 C-0.706875 2.1725 -0.85125 1.595 -1 1 C-0.67 0.67 -0.34 0.34 0 0 Z " fill="#F2AC16" transform="translate(175,67)"/>
<path d="M0 0 C1.65 0 3.3 0 5 0 C5 0.99 5 1.98 5 3 C5.66 3 6.32 3 7 3 C6.34 4.32 5.68 5.64 5 7 C4.67 6.34 4.34 5.68 4 5 C2.68 5 1.36 5 0 5 C0 3.35 0 1.7 0 0 Z " fill="#FDAF01" transform="translate(41,97)"/>
<path d="M0 0 C1.65 1.65 3.3 3.3 5 5 C3.625 7 3.625 7 2 9 C1.34 9 0.68 9 0 9 C-0.66 10.65 -1.32 12.3 -2 14 C-2.8125 12.375 -2.8125 12.375 -3 10 C-1.53181864 7.75390165 0.15852858 5.97621323 2 4 C1.34 2.68 0.68 1.36 0 0 Z " fill="#EDB021" transform="translate(166,114)"/>
<path d="M0 0 C0.5775 0.495 1.155 0.99 1.75 1.5 C4.10400629 3.36980013 4.10400629 3.36980013 8 3 C8 4.32 8 5.64 8 7 C7.34 7 6.68 7 6 7 C5.67 7.99 5.34 8.98 5 10 C4.15801693 8.90241493 3.32669329 7.79664683 2.5 6.6875 C2.0359375 6.07261719 1.571875 5.45773438 1.09375 4.82421875 C0 3 0 3 0 0 Z " fill="#EEAF1A" transform="translate(74,176)"/>
<path d="M0 0 C0.66 0.33 1.32 0.66 2 1 C-0.88406243 4.40843742 -2.3708265 5.86591384 -6.8125 6.8125 C-8.3903125 6.9053125 -8.3903125 6.9053125 -10 7 C-6.81404865 4.36021174 -3.69029454 1.89501612 0 0 Z " fill="#ECAD1E" transform="translate(52,182)"/>
<path d="M0 0 C3.03869411 1.51934706 3.64410306 3.98004772 5 7 C5 7.66 5 8.32 5 9 C3.68 9.33 2.36 9.66 1 10 C1 7.36 1 4.72 1 2 C-0.65 2.33 -2.3 2.66 -4 3 C-3 1 -3 1 0 0 Z " fill="#E6AB25" transform="translate(58,179)"/>
<path d="M0 0 C0.66 0 1.32 0 2 0 C2.66 1.65 3.32 3.3 4 5 C3.34 5 2.68 5 2 5 C2 5.99 2 6.98 2 8 C1.01 7.67 0.02 7.34 -1 7 C-1.04254356 5.00045254 -1.04080783 2.99958364 -1 1 C-0.67 0.67 -0.34 0.34 0 0 Z " fill="#FBB503" transform="translate(72,69)"/>
<path d="M0 0 C0.33 1.32 0.66 2.64 1 4 C0.34 4 -0.32 4 -1 4 C-1 5.32 -1 6.64 -1 8 C-1.66 8 -2.32 8 -3 8 C-3.33 9.65 -3.66 11.3 -4 13 C-5 11 -5 11 -4.25 7.625 C-3.15168868 4.43989717 -2.19279221 2.49180933 0 0 Z " fill="#DFD993" transform="translate(106,165)"/>
<path d="M0 0 C0.33 1.32 0.66 2.64 1 4 C-0.75 5.125 -0.75 5.125 -3 6 C-5.25 5.125 -5.25 5.125 -7 4 C-2.25 0 -2.25 0 0 0 Z " fill="#DDD1B5" transform="translate(91,186)"/>
<path d="M0 0 C0.33 1.32 0.66 2.64 1 4 C-0.28650706 4.69710731 -1.57940665 5.38242876 -2.875 6.0625 C-3.95394531 6.63677734 -3.95394531 6.63677734 -5.0546875 7.22265625 C-5.69664063 7.47917969 -6.33859375 7.73570312 -7 8 C-7.66 7.67 -8.32 7.34 -9 7 C-8.43410156 6.66226563 -7.86820312 6.32453125 -7.28515625 5.9765625 C-6.55167969 5.53054687 -5.81820312 5.08453125 -5.0625 4.625 C-4.33160156 4.18414062 -3.60070312 3.74328125 -2.84765625 3.2890625 C-0.86227728 2.1226016 -0.86227728 2.1226016 0 0 Z " fill="#E8D397" transform="translate(100,178)"/>
<path d="M0 0 C0.33 0 0.66 0 1 0 C1 1.98 1 3.96 1 6 C2.32 6 3.64 6 5 6 C5.33 6.99 5.66 7.98 6 9 C0.25 7.375 0.25 7.375 -2 4 C-1.34 2.68 -0.68 1.36 0 0 Z " fill="#E6AE2E" transform="translate(36,103)"/>
<path d="M0 0 C3.77545388 1.09068668 6.47043472 1.9083091 9 5 C6.69 5 4.38 5 2 5 C2 4.34 2 3.68 2 3 C1.34 3 0.68 3 0 3 C0 2.01 0 1.02 0 0 Z " fill="#EFAD1E" transform="translate(46,97)"/>
<path d="M0 0 C0.33 0 0.66 0 1 0 C0.25 6.625 0.25 6.625 -2 10 C-2.99 9.67 -3.98 9.34 -5 9 C-4.01 8.67 -3.02 8.34 -2 8 C-2 6.35 -2 4.7 -2 3 C-1.34 3 -0.68 3 0 3 C0 2.01 0 1.02 0 0 Z " fill="#F3ED28" transform="translate(101,171)"/>
<path d="M0 0 C3.28788824 3.11016455 5.83735988 6.01618925 8 10 C6.1875 9.875 6.1875 9.875 4 9 C2.26918256 6.05119992 1.08011848 3.24035543 0 0 Z " fill="#FEE80C" transform="translate(151,122)"/>
<path d="M0 0 C0 3.93154432 -1.25327015 6.5065403 -3 10 C-3.99 10.33 -4.98 10.66 -6 11 C-4.55662437 7.11398869 -2.98188088 2.98188088 0 0 Z " fill="#E4AC2E" transform="translate(78,117)"/>
<path d="M0 0 C0.33 0.66 0.66 1.32 1 2 C0.34 2 -0.32 2 -1 2 C-0.67 3.32 -0.34 4.64 0 6 C-1.65 6.66 -3.3 7.32 -5 8 C-3.8141763 4.62496331 -2.72426311 2.35277269 0 0 Z " fill="#EBAE1F" transform="translate(166,63)"/>
<path d="M0 0 C1.98 0.495 1.98 0.495 4 1 C3.67 2.32 3.34 3.64 3 5 C1.68 4.67 0.36 4.34 -1 4 C-0.67 2.68 -0.34 1.36 0 0 Z " fill="#FDAD03" transform="translate(170,75)"/>
</svg>
